<svg width="176" height="39" viewBox="0 0 176 39" fill="none" xmlns="http://www.w3.org/2000/svg">
<path d="M102.349 24.8691H95.8271V23.96L99.2725 20.1318C99.7829 19.5531 100.134 19.0837 100.325 18.7236C100.521 18.359 100.619 17.9831 100.619 17.5957C100.619 17.0762 100.462 16.6501 100.147 16.3174C99.833 15.9847 99.4137 15.8184 98.8896 15.8184C98.2607 15.8184 97.7708 15.9984 97.4199 16.3584C97.0736 16.7139 96.9004 17.2106 96.9004 17.8486H95.6357C95.6357 16.9326 95.9297 16.1921 96.5176 15.627C97.11 15.0618 97.9007 14.7793 98.8896 14.7793C99.8148 14.7793 100.546 15.0231 101.084 15.5107C101.622 15.9938 101.891 16.6387 101.891 17.4453C101.891 18.4251 101.266 19.5918 100.018 20.9453L97.3516 23.8369H102.349V24.8691ZM113.683 24.8691H107.161V23.96L110.606 20.1318C111.117 19.5531 111.468 19.0837 111.659 18.7236C111.855 18.359 111.953 17.9831 111.953 17.5957C111.953 17.0762 111.796 16.6501 111.481 16.3174C111.167 15.9847 110.748 15.8184 110.224 15.8184C109.595 15.8184 109.105 15.9984 108.754 16.3584C108.408 16.7139 108.234 17.2106 108.234 17.8486H106.97C106.97 16.9326 107.264 16.1921 107.852 15.627C108.444 15.0618 109.235 14.7793 110.224 14.7793C111.149 14.7793 111.88 15.0231 112.418 15.5107C112.956 15.9938 113.225 16.6387 113.225 17.4453C113.225 18.4251 112.6 19.5918 111.352 20.9453L108.686 23.8369H113.683V24.8691ZM121.544 24.8691H115.022V23.96L118.468 20.1318C118.978 19.5531 119.329 19.0837 119.521 18.7236C119.716 18.359 119.814 17.9831 119.814 17.5957C119.814 17.0762 119.657 16.6501 119.343 16.3174C119.028 15.9847 118.609 15.8184 118.085 15.8184C117.456 15.8184 116.966 15.9984 116.615 16.3584C116.269 16.7139 116.096 17.2106 116.096 17.8486H114.831C114.831 16.9326 115.125 16.1921 115.713 15.627C116.305 15.0618 117.096 14.7793 118.085 14.7793C119.01 14.7793 119.742 15.0231 120.279 15.5107C120.817 15.9938 121.086 16.6387 121.086 17.4453C121.086 18.4251 120.462 19.5918 119.213 20.9453L116.547 23.8369H121.544V24.8691ZM128.92 17.5137C128.92 18.0104 128.788 18.4525 128.523 18.8398C128.264 19.2272 127.91 19.5303 127.464 19.749C127.983 19.9723 128.394 20.2982 128.694 20.7266C129 21.1549 129.152 21.6403 129.152 22.1826C129.152 23.0439 128.861 23.7298 128.277 24.2402C127.699 24.7507 126.935 25.0059 125.987 25.0059C125.03 25.0059 124.262 24.7507 123.684 24.2402C123.109 23.7253 122.822 23.0394 122.822 22.1826C122.822 21.6449 122.968 21.1595 123.26 20.7266C123.556 20.2936 123.964 19.9655 124.483 19.7422C124.041 19.5234 123.693 19.2204 123.438 18.833C123.182 18.4456 123.055 18.0059 123.055 17.5137C123.055 16.6751 123.324 16.0098 123.861 15.5176C124.399 15.0254 125.108 14.7793 125.987 14.7793C126.862 14.7793 127.569 15.0254 128.106 15.5176C128.649 16.0098 128.92 16.6751 128.92 17.5137ZM127.888 22.1553C127.888 21.5993 127.71 21.1458 127.354 20.7949C127.004 20.444 126.543 20.2686 125.974 20.2686C125.404 20.2686 124.946 20.4417 124.6 20.7881C124.258 21.1344 124.087 21.5902 124.087 22.1553C124.087 22.7204 124.253 23.1647 124.586 23.4883C124.923 23.8118 125.39 23.9736 125.987 23.9736C126.58 23.9736 127.045 23.8118 127.382 23.4883C127.719 23.1602 127.888 22.7158 127.888 22.1553ZM125.987 15.8184C125.491 15.8184 125.087 15.9733 124.777 16.2832C124.472 16.5885 124.319 17.0055 124.319 17.5342C124.319 18.04 124.47 18.4502 124.771 18.7646C125.076 19.0745 125.481 19.2295 125.987 19.2295C126.493 19.2295 126.896 19.0745 127.197 18.7646C127.503 18.4502 127.655 18.04 127.655 17.5342C127.655 17.0283 127.498 16.6159 127.184 16.2969C126.869 15.9779 126.47 15.8184 125.987 15.8184ZM139.126 18.5186H135.715V24.8691H134.443V17.4727H139.126V18.5186ZM146.475 21.2529C146.475 22.3786 146.217 23.2855 145.702 23.9736C145.187 24.6618 144.49 25.0059 143.61 25.0059C142.713 25.0059 142.006 24.721 141.491 24.1514V27.7129H140.227V17.4727H141.382L141.443 18.293C141.958 17.6549 142.674 17.3359 143.59 17.3359C144.479 17.3359 145.18 17.6709 145.695 18.3408C146.215 19.0107 146.475 19.9427 146.475 21.1367V21.2529ZM145.21 21.1094C145.21 20.2754 145.032 19.6169 144.677 19.1338C144.321 18.6507 143.834 18.4092 143.214 18.4092C142.448 18.4092 141.874 18.7487 141.491 19.4277V22.9619C141.869 23.6364 142.448 23.9736 143.228 23.9736C143.834 23.9736 144.314 23.7344 144.67 23.2559C145.03 22.7728 145.21 22.0573 145.21 21.1094ZM154.131 24.8691H152.866V21.7109H149.469V24.8691H148.197V17.4727H149.469V20.6787H152.866V17.4727H154.131V24.8691ZM156.195 24.2061C156.195 23.9873 156.259 23.805 156.387 23.6592C156.519 23.5133 156.715 23.4404 156.975 23.4404C157.234 23.4404 157.43 23.5133 157.562 23.6592C157.699 23.805 157.768 23.9873 157.768 24.2061C157.768 24.4157 157.699 24.5911 157.562 24.7324C157.43 24.8737 157.234 24.9443 156.975 24.9443C156.715 24.9443 156.519 24.8737 156.387 24.7324C156.259 24.5911 156.195 24.4157 156.195 24.2061Z" fill="#241400"/>
<path d="M171.5 23.8691L167 18.8691H176L171.5 23.8691Z" fill="#241400"/>
<path d="M11.0834 5.61914C6.71183 5.61914 3.16675 9.12781 3.16675 13.4566C3.16675 16.9511 4.55216 25.2446 18.1894 33.6283C18.4337 33.7769 18.7141 33.8556 19.0001 33.8556C19.286 33.8556 19.5665 33.7769 19.8107 33.6283C33.448 25.2446 34.8334 16.9511 34.8334 13.4566C34.8334 9.12781 31.2883 5.61914 26.9168 5.61914C22.5452 5.61914 19.0001 10.3691 19.0001 10.3691C19.0001 10.3691 15.455 5.61914 11.0834 5.61914Z" stroke="#E16A00" stroke-width="2" stroke-linecap="round" stroke-linejoin="round"/>
<path d="M59.875 6.94312V9.25556H82.4375V13.8331L79.8027 21.974H59.1278L56.159 1.15918H49.1875V3.47163H54.091L57.0597 24.2865H81.5445L84.8125 14.1888V6.94312H59.875Z" fill="#E16A00"/>
<path d="M61.1355 26.618C59.8762 26.6194 58.6688 27.1072 57.7783 27.9742C56.8878 28.8412 56.3869 30.0168 56.3855 31.2429C56.3855 32.4695 56.8859 33.6459 57.7767 34.5132C58.6675 35.3806 59.8757 35.8678 61.1355 35.8678C62.3953 35.8678 63.6035 35.3806 64.4943 34.5132C65.3851 33.6459 65.8855 32.4695 65.8855 31.2429C65.8841 30.0168 65.3832 28.8412 64.4927 27.9742C63.6022 27.1071 62.3948 26.6194 61.1355 26.618ZM61.1355 33.5554C60.6658 33.5554 60.2066 33.4198 59.816 33.1657C59.4255 32.9116 59.121 32.5504 58.9413 32.1279C58.7615 31.7053 58.7145 31.2404 58.8061 30.7918C58.8978 30.3432 59.124 29.9312 59.4561 29.6078C59.7883 29.2844 60.2115 29.0641 60.6722 28.9749C61.1329 28.8857 61.6104 28.9315 62.0444 29.1065C62.4783 29.2815 62.8493 29.5779 63.1102 29.9582C63.3712 30.3385 63.5105 30.7856 63.5105 31.2429C63.5097 31.856 63.2593 32.4438 62.8141 32.8773C62.3688 33.3108 61.7652 33.5547 61.1355 33.5554Z" fill="#E16A00"/>
<path d="M77.7605 26.618C76.5012 26.6194 75.2938 27.1072 74.4033 27.9742C73.5128 28.8412 73.0119 30.0168 73.0105 31.2429C73.0105 32.4695 73.5109 33.6459 74.4017 34.5132C75.2925 35.3806 76.5007 35.8678 77.7605 35.8678C79.0203 35.8678 80.2285 35.3806 81.1193 34.5132C82.0101 33.6459 82.5105 32.4695 82.5105 31.2429C82.5091 30.0168 82.0082 28.8412 81.1177 27.9742C80.2272 27.1071 79.0198 26.6194 77.7605 26.618ZM77.7605 33.5554C77.2908 33.5554 76.8316 33.4198 76.441 33.1657C76.0505 32.9116 75.746 32.5504 75.5663 32.1279C75.3865 31.7053 75.3395 31.2404 75.4311 30.7918C75.5228 30.3432 75.749 29.9312 76.0811 29.6078C76.4133 29.2844 76.8365 29.0641 77.2972 28.9749C77.7579 28.8857 78.2354 28.9315 78.6694 29.1065C79.1033 29.2815 79.4743 29.5779 79.7352 29.9582C79.9962 30.3385 80.1355 30.7856 80.1355 31.2429C80.1348 31.856 79.8843 32.4438 79.4391 32.8773C78.9938 33.3108 78.3902 33.5547 77.7605 33.5554Z" fill="#E16A00"/>
</svg>
